<svg width="30" height="46" viewBox="0 0 30 46" fill="none" xmlns="http://www.w3.org/2000/svg">
<path d="M16.8617 8.83246C16.7979 9.15533 16.8636 9.49026 17.0447 9.76536L19.4244 13.4057C20.9498 15.7481 22.1091 16.752 25.0277 16.752C25.8311 16.752 29.8379 16.5289 29.8379 12.3004V3.91447C29.8372 3.68013 29.7462 3.45502 29.5837 3.28578C29.4199 3.12416 29.1988 3.0335 28.9684 3.0335C28.738 3.0335 28.5169 3.12416 28.3531 3.28578C28.1903 3.45567 28.0961 3.67957 28.0887 3.91447V7.74746C28.0885 7.85577 28.0487 7.96029 27.9769 8.04153C27.898 8.11856 27.7923 8.16217 27.682 8.16321C27.627 8.16504 27.5722 8.15513 27.5213 8.13414C27.4705 8.11316 27.4247 8.08158 27.387 8.04153C27.3479 8.00325 27.3169 7.95746 27.2959 7.90693C27.2749 7.85639 27.2644 7.80215 27.265 7.74746V2.27176C27.2639 2.04051 27.1727 1.81875 27.0108 1.65321C26.9292 1.57234 26.8324 1.50833 26.7259 1.46483C26.6195 1.42133 26.5055 1.3992 26.3904 1.3997C26.1585 1.40086 25.9361 1.49175 25.7701 1.65321C25.689 1.73457 25.6248 1.83108 25.5812 1.93723C25.5376 2.04337 25.5154 2.15705 25.5159 2.27176V7.08835C25.5159 7.1706 25.4915 7.25102 25.4457 7.31942C25.3998 7.38782 25.3347 7.44113 25.2585 7.47261C25.1823 7.5041 25.0984 7.51233 25.0175 7.49627C24.9366 7.48022 24.8623 7.44059 24.804 7.38241C24.7293 7.30217 24.6859 7.1978 24.682 7.08835V1.66335C24.6856 1.54215 24.665 1.42144 24.6214 1.30828C24.5777 1.19511 24.5119 1.09175 24.4277 1.00423C24.264 0.842613 24.0429 0.751953 23.8125 0.751953C23.5821 0.751953 23.361 0.842613 23.1972 1.00423C23.0318 1.17246 22.9372 1.39739 22.9328 1.63293V7.08835C22.9334 7.14304 22.9229 7.19728 22.9019 7.24781C22.881 7.29835 22.85 7.34413 22.8108 7.38241C22.7743 7.42119 22.7302 7.45201 22.6812 7.47295C22.6322 7.49389 22.5794 7.5045 22.526 7.5041C22.471 7.50593 22.4163 7.49602 22.3654 7.47503C22.3145 7.45405 22.2688 7.42247 22.2311 7.38241C22.192 7.34413 22.161 7.29835 22.14 7.24781C22.119 7.19728 22.1085 7.14304 22.1091 7.08835V2.96129C22.1084 2.72695 22.0174 2.50184 21.8549 2.3326C21.6894 2.17035 21.4666 2.07942 21.2345 2.07942C21.0024 2.07942 20.7797 2.17035 20.6142 2.3326C20.4516 2.50184 20.3606 2.72695 20.3599 2.96129V10.6577L18.8854 8.62966C18.732 8.36862 18.483 8.17721 18.1908 8.09585C17.8985 8.0145 17.5861 8.04956 17.3193 8.19363C17.2044 8.26953 17.1045 8.36576 17.0244 8.47755C16.9451 8.59031 16.8898 8.71796 16.8617 8.85274" fill="white"/>
<path d="M24.7003 19.1749C23.0856 19.1917 21.4991 18.7508 20.1242 17.9033V31.2447C20.1481 31.9188 20.0276 32.5903 19.7708 33.2139C19.5139 33.8376 19.1268 34.3991 18.6352 34.8606C17.6212 35.7871 16.285 36.2792 14.9128 36.2315C14.2216 36.2649 13.5307 36.1609 12.8798 35.9256C12.229 35.6903 11.6312 35.3284 11.1209 34.8606C10.6443 34.383 10.2724 33.8113 10.029 33.1818C9.78874 32.5482 9.68064 31.872 9.7113 31.195V13.8105H0.439972V31.2447C0.374587 33.0706 0.700401 34.8893 1.39553 36.5787C2.09065 38.2682 3.13899 39.7892 4.47012 41.0396C7.31769 43.6243 11.0726 44.9745 14.9128 44.7946C18.7423 44.9397 22.4775 43.5856 25.3257 41.0197C26.6704 39.7806 27.7327 38.2662 28.4401 36.5794C29.1476 34.8926 29.4836 33.0731 29.4253 31.2447V17.8338C28.0274 18.728 26.3989 19.1941 24.74 19.1749" fill="#7120EA"/>
</svg>
